<?xml version="1.0" encoding="UTF-8" standalone="no"?>
<!-- Created with Inkscape (http://www.inkscape.org/) -->

<svg
   xmlns:dc="http://purl.org/dc/elements/1.1/"
   xmlns:cc="http://creativecommons.org/ns#"
   xmlns:rdf="http://www.w3.org/1999/02/22-rdf-syntax-ns#"
   xmlns:svg="http://www.w3.org/2000/svg"
   xmlns="http://www.w3.org/2000/svg"
   xmlns:xlink="http://www.w3.org/1999/xlink"
   xmlns:sodipodi="http://sodipodi.sourceforge.net/DTD/sodipodi-0.dtd"
   xmlns:inkscape="http://www.inkscape.org/namespaces/inkscape"
   width="600"
   height="800"
   viewBox="0 0 158.75 211.66667"
   version="1.1"
   id="svg8"
   inkscape:version="0.92.4 5da689c313, 2019-01-14"
   sodipodi:docname="tinyqmlprojects.svg">
  <defs
     id="defs2" />
  <sodipodi:namedview
     id="base"
     pagecolor="#ffffff"
     bordercolor="#666666"
     borderopacity="1.0"
     inkscape:pageopacity="0.0"
     inkscape:pageshadow="2"
     inkscape:zoom="1"
     inkscape:cx="288.37028"
     inkscape:cy="406.30232"
     inkscape:document-units="mm"
     inkscape:current-layer="layer1"
     showgrid="false"
     units="px"
     inkscape:snap-page="true"
     inkscape:window-width="1920"
     inkscape:window-height="1017"
     inkscape:window-x="0"
     inkscape:window-y="36"
     inkscape:window-maximized="1"
     inkscape:snap-global="true"
     inkscape:snap-object-midpoints="true"
     inkscape:snap-center="true" />
  <metadata
     id="metadata5">
    <rdf:RDF>
      <cc:Work
         rdf:about="">
        <dc:format>image/svg+xml</dc:format>
        <dc:type
           rdf:resource="http://purl.org/dc/dcmitype/StillImage" />
        <dc:title />
      </cc:Work>
    </rdf:RDF>
  </metadata>
  <g
     inkscape:groupmode="layer"
     id="layer2"
     inkscape:label="png"
     style="display:inline">
    <image
       sodipodi:absref="/home/flu/Projects/flurick.github.io/bg.png"
       xlink:href="bg.png"
       width="158.75"
       height="211.93124"
       preserveAspectRatio="none"
       id="image4532"
       x="0"
       y="85.333298"
       style="display:inline"
       transform="translate(0,-85.333298)" />
  </g>
  <g
     inkscape:label="svg links"
     inkscape:groupmode="layer"
     id="layer1"
     transform="translate(0,-85.333297)"
     style="display:inline">
    <a
       id="a4584"
       xlink:href="https://github.com/flurick/RoundDesktopCorners/blob/master/overlay?raw=true"
       style="fill:#ffffff;fill-opacity:0.00392157;stroke:none;stroke-width:1.55562508;stroke-miterlimit:4;stroke-dasharray:none;stroke-opacity:1"
       xlink:title="Click to download: A tiny QML project, for KDE plasma desktop, rounding the corners of the monitor/screen/desktop. (This is the binary file so it need to be marked &quot;executable&quot; to run). Remove the corners via the small icon of a dot by the clock/systemtray"
       transform="matrix(0.36048176,0,0,0.31948721,105.02853,128.83689)">
      <path
         onclick=""
         style="fill:#ffffff;fill-opacity:0.00392157;stroke:none;stroke-width:1.55562508;stroke-miterlimit:4;stroke-dasharray:none;stroke-opacity:1"
         inkscape:connector-curvature="0"
         d="m 78.176338,252.69764 c 14.140705,0 22.001722,0 27.136062,-5.13433 5.13432,-5.13434 5.13432,-12.99536 5.13432,-27.13606 0,-14.14071 0,-22.00173 -5.13432,-27.13607 -5.13434,-5.13433 -12.995357,-5.13433 -27.136062,-5.13433 -14.140705,0 -22.001716,0 -27.136058,5.13433 -5.134331,5.13434 -5.134331,12.99536 -5.134331,27.13607 0,14.1407 0,22.00172 5.134331,27.13606 5.134342,5.13433 12.995353,5.13433 27.136058,5.13433 z"
         id="path4533" />
    </a>
    <a
       id="a4584-3"
       xlink:href="https://github.com/flurick/RoundDesktopCorners/blob/master/overlay?r"
       style="display:inline;fill:#ffffff;fill-opacity:0.00392157;stroke:none;stroke-width:1.55562508;stroke-miterlimit:4;stroke-dasharray:none;stroke-opacity:1"
       xlink:title="Download for linux"
       transform="matrix(0.80732462,0,0,0.68434046,15.33528,53.945387)">
      <path
         onclick=""
         style="fill:#ffffff;fill-opacity:0.00392157;stroke:none;stroke-width:1.55562508;stroke-miterlimit:4;stroke-dasharray:none;stroke-opacity:1"
         inkscape:connector-curvature="0"
         d="m 78.176338,252.69764 c 14.140705,0 22.001722,0 27.136062,-5.13433 5.13432,-5.13434 5.13432,-12.99536 5.13432,-27.13606 0,-14.14071 0,-22.00173 -5.13432,-27.13607 -5.13434,-5.13433 -12.995357,-5.13433 -27.136062,-5.13433 -14.140705,0 -22.001716,0 -27.136058,5.13433 -5.134331,5.13434 -5.134331,12.99536 -5.134331,27.13607 0,14.1407 0,22.00172 5.134331,27.13606 5.134342,5.13433 12.995353,5.13433 27.136058,5.13433 z"
         id="path4533-6" />
    </a>
    <a
       id="a4584-7"
       xlink:href="https://github.com/flurick/RoundDesktopCorners"
       style="display:inline;fill:#ffffff;fill-opacity:0.00392157;stroke:none;stroke-width:1.55562508;stroke-miterlimit:4;stroke-dasharray:none;stroke-opacity:1"
       xlink:title="The code of Round Corners"
       transform="matrix(0.36048175,0,0,0.31948721,103.58136,150.90544)">
      <path
         onclick=""
         style="fill:#ffffff;fill-opacity:0.00392157;stroke:none;stroke-width:1.55562508;stroke-miterlimit:4;stroke-dasharray:none;stroke-opacity:1"
         inkscape:connector-curvature="0"
         d="m 78.176338,252.69764 c 14.140705,0 22.001722,0 27.136062,-5.13433 5.13432,-5.13434 5.13432,-12.99536 5.13432,-27.13606 0,-14.14071 0,-22.00173 -5.13432,-27.13607 -5.13434,-5.13433 -12.995357,-5.13433 -27.136062,-5.13433 -14.140705,0 -22.001716,0 -27.136058,5.13433 -5.134331,5.13434 -5.134331,12.99536 -5.134331,27.13607 0,14.1407 0,22.00172 5.134331,27.13606 5.134342,5.13433 12.995353,5.13433 27.136058,5.13433 z"
         id="path4533-5" />
    </a>
  </g>
</svg>
